G04 Layer_Color=8388736*
%FSLAX25Y25*%
%MOIN*%
G70*
G01*
G75*
%ADD42C,0.01200*%
%ADD58C,0.03800*%
%ADD59R,0.08674X0.03202*%
%ADD60R,0.14973X0.14973*%
%ADD61R,0.06706X0.14186*%
%ADD62R,0.04737X0.14579*%
%ADD63R,0.03162X0.02454*%
%ADD64R,0.01280X0.02756*%
%ADD65R,0.03359X0.04737*%
%ADD66O,0.03950X0.06706*%
%ADD67O,0.06706X0.03950*%
%ADD68R,0.05131X0.04737*%
%ADD69R,0.04737X0.05131*%
%ADD70R,0.06706X0.04737*%
%ADD71R,0.10642X0.15761*%
%ADD72R,0.02769X0.06312*%
%ADD73R,0.13398X0.04737*%
%ADD74R,0.07887X0.08280*%
%ADD75R,0.08280X0.08280*%
%ADD76R,0.09068X0.07099*%
%ADD77R,0.02375X0.06115*%
%ADD78R,0.04934X0.03162*%
%ADD79R,0.04737X0.10839*%
%ADD80R,0.07493X0.07493*%
%ADD81R,0.03162X0.03359*%
%ADD82R,0.03162X0.02572*%
%ADD83R,0.05131X0.08280*%
%ADD84O,0.07690X0.02965*%
%ADD85O,0.02965X0.07690*%
%ADD86R,0.09800X0.07800*%
%ADD87C,0.06312*%
%ADD88R,0.06706X0.06706*%
%ADD89C,0.06706*%
%ADD90C,0.16001*%
D42*
X106570Y240570D02*
X326930D01*
X106000Y240000D02*
X106570Y240570D01*
X106000Y99500D02*
Y240000D01*
X327500Y99500D02*
Y240000D01*
X106000Y99500D02*
X327500D01*
D58*
X208478Y133219D02*
D03*
X203482Y133210D02*
D03*
X213481Y133218D02*
D03*
X223485Y133215D02*
D03*
X218482Y133216D02*
D03*
X228486Y133217D02*
D03*
D59*
X128929Y122389D02*
D03*
Y126334D02*
D03*
Y146044D02*
D03*
Y142102D02*
D03*
Y185462D02*
D03*
Y165753D02*
D03*
Y169695D02*
D03*
Y161811D02*
D03*
X128929Y189443D02*
D03*
Y201269D02*
D03*
Y197327D02*
D03*
Y217037D02*
D03*
Y193385D02*
D03*
X128929Y157869D02*
D03*
Y153927D02*
D03*
Y149985D02*
D03*
Y181521D02*
D03*
Y177579D02*
D03*
Y173637D02*
D03*
X128929Y213095D02*
D03*
Y209153D02*
D03*
Y205211D02*
D03*
X128929Y138160D02*
D03*
Y134218D02*
D03*
Y130276D02*
D03*
D60*
X117906Y231614D02*
D03*
Y107795D02*
D03*
D61*
X167593Y232672D02*
D03*
X141232Y232677D02*
D03*
D62*
X150476Y210842D02*
D03*
X158362Y210837D02*
D03*
D63*
X321339Y207941D02*
D03*
Y210500D02*
D03*
Y213059D02*
D03*
X313858Y207941D02*
D03*
Y210500D02*
D03*
Y213059D02*
D03*
D64*
X203350Y198349D02*
D03*
X201780Y198343D02*
D03*
X200206Y198342D02*
D03*
X197060Y198339D02*
D03*
X198634Y198340D02*
D03*
X198632Y205420D02*
D03*
X197058Y205420D02*
D03*
X200205Y205423D02*
D03*
X201779Y205423D02*
D03*
X203349Y205430D02*
D03*
D65*
X185906Y201102D02*
D03*
X182165D02*
D03*
X178425D02*
D03*
X185906Y209567D02*
D03*
X178425D02*
D03*
X146425Y177567D02*
D03*
X153906D02*
D03*
X146425Y169102D02*
D03*
X150165D02*
D03*
X153906D02*
D03*
D66*
X299326Y199994D02*
D03*
X308381D02*
D03*
X289877D02*
D03*
X294602D02*
D03*
X276098D02*
D03*
X285153D02*
D03*
X304444D02*
D03*
X280035D02*
D03*
D67*
X266255Y137002D02*
D03*
Y141726D02*
D03*
Y146450D02*
D03*
Y151175D02*
D03*
Y155899D02*
D03*
Y160624D02*
D03*
Y165348D02*
D03*
Y170072D02*
D03*
Y174797D02*
D03*
Y179521D02*
D03*
Y184246D02*
D03*
Y188970D02*
D03*
X318617D02*
D03*
Y184246D02*
D03*
Y179521D02*
D03*
Y174797D02*
D03*
Y170072D02*
D03*
Y165348D02*
D03*
Y160624D02*
D03*
Y155899D02*
D03*
Y151175D02*
D03*
Y146450D02*
D03*
Y141726D02*
D03*
Y137002D02*
D03*
D68*
X158945Y190500D02*
D03*
X152252D02*
D03*
X294445Y214000D02*
D03*
X287752D02*
D03*
X247445Y189500D02*
D03*
X240752D02*
D03*
X247445Y196000D02*
D03*
X240752D02*
D03*
X201445Y211500D02*
D03*
X194752D02*
D03*
X183945Y217000D02*
D03*
X177252D02*
D03*
X173945Y201500D02*
D03*
X167252D02*
D03*
X225748Y146500D02*
D03*
X219055D02*
D03*
X240752Y177000D02*
D03*
X247445D02*
D03*
X240752Y183000D02*
D03*
X247445D02*
D03*
X220252Y176500D02*
D03*
X226945D02*
D03*
D69*
X247000Y139945D02*
D03*
Y133252D02*
D03*
X140500Y164945D02*
D03*
Y158252D02*
D03*
X140000Y177555D02*
D03*
Y184248D02*
D03*
X259000Y163445D02*
D03*
Y156752D02*
D03*
X158000Y134555D02*
D03*
Y141248D02*
D03*
X253000Y157055D02*
D03*
Y163748D02*
D03*
X259000Y140055D02*
D03*
Y146748D02*
D03*
X253000Y140055D02*
D03*
Y146748D02*
D03*
X240500Y139945D02*
D03*
Y133252D02*
D03*
X191500Y198555D02*
D03*
Y205248D02*
D03*
X209000Y208945D02*
D03*
Y202252D02*
D03*
X164000Y131252D02*
D03*
Y137945D02*
D03*
X176500Y137748D02*
D03*
Y131055D02*
D03*
X170000Y137748D02*
D03*
Y131055D02*
D03*
X153000Y160748D02*
D03*
Y154055D02*
D03*
D70*
X302176Y222115D02*
D03*
X302176Y228413D02*
D03*
X302177Y234712D02*
D03*
X282879Y234713D02*
D03*
X282879Y228414D02*
D03*
X282878Y222116D02*
D03*
D71*
X152137Y113790D02*
D03*
X185192Y113778D02*
D03*
D72*
X165537Y123889D02*
D03*
X162387Y123889D02*
D03*
X168687Y123888D02*
D03*
X174986Y123887D02*
D03*
X171836Y123888D02*
D03*
D73*
X234671Y103507D02*
D03*
X234670Y119257D02*
D03*
X207890Y119261D02*
D03*
X207892Y103511D02*
D03*
D74*
X232060Y234873D02*
D03*
X263568Y234879D02*
D03*
D75*
X243086Y234873D02*
D03*
X252536Y234876D02*
D03*
D76*
X236784Y226802D02*
D03*
X258838Y226817D02*
D03*
D77*
X245247Y226314D02*
D03*
X242689Y226311D02*
D03*
X247807Y226316D02*
D03*
X250365Y226319D02*
D03*
X252932Y226323D02*
D03*
D78*
X150478Y135458D02*
D03*
X150471Y139164D02*
D03*
X150462Y142895D02*
D03*
X139840Y142906D02*
D03*
X139857Y135469D02*
D03*
D79*
X208565Y222264D02*
D03*
X200681Y222266D02*
D03*
X192805Y222265D02*
D03*
D80*
X220252Y235963D02*
D03*
X181675Y235936D02*
D03*
D81*
X221444Y185545D02*
D03*
X221443Y194986D02*
D03*
X226569Y194982D02*
D03*
X226569Y185541D02*
D03*
D82*
X221441Y188690D02*
D03*
X221441Y191838D02*
D03*
X226567Y191834D02*
D03*
X226566Y188686D02*
D03*
D83*
X227083Y154059D02*
D03*
Y168724D02*
D03*
X217929D02*
D03*
Y154157D02*
D03*
D84*
X161756Y152252D02*
D03*
Y155402D02*
D03*
Y158551D02*
D03*
Y161701D02*
D03*
Y164850D02*
D03*
Y168000D02*
D03*
Y171150D02*
D03*
Y174299D02*
D03*
Y177449D02*
D03*
Y180598D02*
D03*
Y183748D02*
D03*
X206244D02*
D03*
Y180598D02*
D03*
Y177449D02*
D03*
Y174299D02*
D03*
Y171150D02*
D03*
Y168000D02*
D03*
Y164850D02*
D03*
Y161701D02*
D03*
Y158551D02*
D03*
Y155402D02*
D03*
Y152252D02*
D03*
D85*
X168252Y190244D02*
D03*
X171402D02*
D03*
X174551D02*
D03*
X177701D02*
D03*
X180850D02*
D03*
X184000D02*
D03*
X187150D02*
D03*
X190299D02*
D03*
X193449D02*
D03*
X196598D02*
D03*
X199748D02*
D03*
Y145756D02*
D03*
X196598D02*
D03*
X193449D02*
D03*
X190299D02*
D03*
X187150D02*
D03*
X184000D02*
D03*
X180850D02*
D03*
X177701D02*
D03*
X174551D02*
D03*
X171402D02*
D03*
X168252D02*
D03*
D86*
X105577Y189803D02*
D03*
X105585Y150932D02*
D03*
X105630Y175992D02*
D03*
X105555Y204468D02*
D03*
X105630Y132992D02*
D03*
D87*
X223000Y214500D02*
D03*
X132000Y225000D02*
D03*
X133500Y107500D02*
D03*
X213500Y190500D02*
D03*
X217000Y201500D02*
D03*
X139500Y200500D02*
D03*
X237500Y203500D02*
D03*
X228000D02*
D03*
X140500Y151500D02*
D03*
X140000Y171000D02*
D03*
Y191500D02*
D03*
X142000Y104500D02*
D03*
D88*
X253000Y214000D02*
D03*
D89*
X243000D02*
D03*
D90*
X254500Y111000D02*
D03*
M02*
